# Blender 3.3.1
# www.blender.org
mtllib bunny6.mtl
o bunny
v 0.006870 0.118595 0.039828
v -0.055430 0.156074 0.020100
v -0.018973 0.044905 0.051825
v -0.090446 0.130660 0.003368
v -0.043794 0.054844 0.034424
v -0.086450 0.152896 0.015251
v 0.007500 0.069146 0.058426
v -0.057356 0.121169 -0.014501
v -0.074467 0.123026 0.057538
v -0.050494 0.143300 -0.000100
v 0.007803 0.133688 0.003716
v -0.072812 0.106183 0.040808
v -0.076766 0.082720 -0.016954
v -0.031669 0.096301 0.046391
v -0.065054 0.154568 0.003721
v -0.011070 0.162387 -0.013865
v 0.042687 0.107427 0.026909
v 0.056849 0.074251 0.012128
v -0.093384 0.110581 0.031986
v 0.014630 0.034866 -0.017484
v 0.047887 0.045436 -0.000586
v -0.064223 0.159255 -0.059601
v -0.031652 0.098125 -0.026145
v -0.038696 0.127109 0.017417
v -0.076283 0.180839 -0.052832
v -0.014917 0.188589 -0.023552
v -0.075656 0.036721 0.000523
v 0.034564 0.098419 -0.017802
v -0.047422 0.055983 -0.007079
v -0.025993 0.051344 -0.030428
v -0.081048 0.068462 0.008903
v -0.000725 0.078624 -0.039475
v -0.044103 0.033911 -0.022442
v 0.010360 0.032439 0.021076
v -0.032872 0.035559 0.040251
v -0.058211 0.077297 0.045104
v -0.066211 0.037007 0.039342
v 0.026420 0.040088 0.039127
v -0.066188 0.140935 -0.009136
vn 0.8458 0.4719 -0.2487
vn -0.0439 0.3512 0.9353
vn 0.8061 0.0104 -0.5917
vn -0.1126 0.0903 0.9895
vn 0.9960 -0.0889 0.0065
vn 0.1957 -0.4509 0.8708
vn 0.0689 0.6918 0.7188
vn 0.0689 0.6917 0.7189
vn 0.1857 -0.3223 0.9283
vn -0.2423 0.6348 0.7337
vn -0.2715 0.0346 0.9618
vn -0.4736 0.8579 0.1994
vn 0.6857 0.3363 0.6456
vn 0.6770 -0.4841 0.5543
vn 0.4090 0.3258 0.8524
vn 0.6837 -0.0329 0.7290
vn 0.8191 -0.4249 0.3855
vn 0.6873 -0.0344 0.7256
vn 0.5340 0.3610 0.7645
vn -0.0559 -0.9978 0.0363
vn 0.5118 -0.6641 0.5450
vn 0.4996 -0.2426 -0.8316
vn 0.8782 0.4760 0.0468
vn -0.0139 0.2820 0.9593
vn -0.9591 -0.1489 -0.2406
vn -0.9592 -0.1487 -0.2406
vn -0.5491 0.8328 0.0709
vn 0.8557 0.0680 -0.5130
vn 0.8556 0.0680 -0.5131
vn -0.0171 0.9227 0.3852
vn -0.0965 0.9947 -0.0348
vn -0.9856 0.1684 0.0172
vn -0.9856 0.1683 0.0173
vn 0.8562 0.5048 -0.1100
vn 0.6854 0.6796 -0.2614
vn 0.3942 0.8443 0.3631
vn -0.3753 -0.1764 -0.9100
vn 0.1412 0.9083 0.3939
vn -0.5891 -0.0603 0.8058
vn -0.1738 0.7805 0.6006
vn -0.4057 -0.0695 0.9114
vn -0.5972 -0.0977 0.7961
vn -0.8295 0.3176 0.4594
vn 0.1000 0.5724 -0.8138
vn -0.8710 -0.3950 -0.2922
vn -0.7067 -0.6558 -0.2656
vn -0.7392 -0.0278 -0.6729
vn -0.5976 0.7896 0.1396
vn -0.7622 0.4160 -0.4961
vn -0.7622 0.4159 -0.4960
vn 0.0915 0.6565 -0.7488
vn 0.0916 0.6565 -0.7488
vn -0.4967 -0.7226 -0.4807
vn -0.5534 0.4678 -0.6892
vn -0.6478 0.3672 -0.6675
vn 0.0781 -0.9410 0.3293
vn 0.3094 0.6387 -0.7045
vn -0.1646 0.9826 -0.0866
vn 0.4097 0.4049 -0.8175
vn 0.1242 0.5538 -0.8233
vn 0.1240 0.5536 -0.8235
vn 0.1241 0.5537 -0.8234
vn -0.4681 0.0305 -0.8831
vn -0.5018 0.4421 -0.7435
vn 0.5681 -0.1216 -0.8139
vn -0.4869 -0.6905 -0.5349
vn -0.4870 -0.6905 -0.5348
vn -0.4871 -0.6905 -0.5347
vn -0.0518 -0.3955 -0.9170
vn -0.2581 0.1907 -0.9471
vn 0.1209 -0.4116 -0.9033
vn 0.0814 -0.4838 -0.8714
vn -0.3744 0.0395 -0.9264
vn -0.1463 -0.3619 -0.9207
vn 0.3628 -0.9292 0.0710
vn 0.0213 -0.9979 -0.0604
vn 0.3143 -0.9490 -0.0249
vn -0.4104 -0.6626 0.6265
vn -0.6741 -0.4969 0.5465
vn -0.3461 -0.9382 0.0045
vn -0.0709 -0.9972 0.0246
vn -0.5842 -0.6227 0.5205
vn 0.0733 -0.8171 0.5718
vn -0.0443 -0.9984 0.0342
s 0
f 28//1 17//1 18//1
f 7//2 1//2 14//2
f 21//3 28//3 18//3
f 36//4 14//4 12//4
f 22//5 15//5 39//5
f 3//6 38//6 7//6
f 14//7 24//8 12//7
f 5//9 14//9 36//9
f 14//10 1//10 24//10
f 3//11 7//11 14//11
f 2//12 26//12 15//12
f 9//13 24//13 2//13
f 9//14 12//14 24//14
f 17//15 1//15 7//15
f 18//16 17//16 38//16
f 21//17 18//17 38//17
f 38//18 17//18 7//18
f 16//19 26//19 2//19
f 34//20 35//20 33//20
f 10//21 16//21 2//21
f 32//22 21//22 20//22
f 22//23 25//23 15//23
f 5//24 37//24 35//24
f 31//25 19//25 13//26
f 27//27 5//27 29//27
f 8//28 10//28 24//29
f 11//30 24//30 1//30
f 6//31 2//31 15//31
f 19//32 6//32 4//33
f 10//34 2//34 24//34
f 28//35 11//35 17//35
f 11//36 1//36 17//36
f 10//37 15//37 26//37
f 6//38 15//38 25//38
f 14//39 5//39 3//39
f 6//40 9//40 2//40
f 36//41 12//41 19//41
f 35//42 3//42 5//42
f 9//43 6//43 19//43
f 11//44 28//44 23//44
f 22//45 6//45 25//45
f 22//46 39//46 6//46
f 30//47 29//47 23//47
f 37//48 5//48 27//48
f 19//49 8//50 13//50
f 23//51 28//52 32//51
f 29//53 31//53 13//53
f 4//54 6//54 39//54
f 29//55 30//55 33//55
f 38//56 35//56 34//56
f 10//57 39//57 15//57
f 24//58 11//58 8//58
f 10//59 8//59 39//59
f 8//60 11//61 23//62
f 4//63 39//63 8//63
f 33//64 27//64 29//64
f 21//65 32//65 28//65
f 19//66 4//67 8//68
f 29//69 13//69 23//69
f 13//70 8//70 23//70
f 30//71 32//71 20//71
f 20//72 33//72 30//72
f 30//73 23//73 32//73
f 10//74 26//74 16//74
f 21//75 38//75 34//75
f 20//76 34//76 33//76
f 21//77 34//77 20//77
f 12//78 9//78 19//78
f 36//79 19//79 31//79
f 29//80 5//80 31//80
f 37//81 27//81 33//81
f 5//82 36//82 31//82
f 38//83 3//83 35//83
f 35//84 37//84 33//84
