v -0.010726 0.180390 -0.029278
v 0.006657 0.129085 0.032036
v -0.062612 0.038532 0.046803
v -0.051928 0.153954 0.012578
v -0.015979 0.049922 0.048951
v -0.028647 0.038787 0.055977
v -0.090446 0.130661 0.003367
v -0.035871 0.053245 0.037763
v -0.077535 0.151821 -0.003513
v 0.007501 0.069145 0.058426
v -0.061612 0.154522 0.033034
v -0.061175 0.111321 -0.016152
v -0.091161 0.090571 0.021486
v -0.074467 0.123025 0.057538
v -0.050494 0.143299 -0.000100
v 0.007802 0.133688 0.003716
v -0.072813 0.106183 0.040807
v -0.076765 0.082719 -0.016955
v -0.091842 0.111592 0.014796
v -0.021265 0.091209 0.057701
v -0.033715 0.096125 0.043877
v 0.009988 0.104350 0.045153
v -0.064719 0.154562 0.003500
v 0.017432 0.039973 0.044209
v -0.008789 0.112787 -0.019809
v -0.011069 0.162388 -0.013866
v 0.042687 0.107427 0.026909
v 0.040696 0.055607 0.033572
v 0.053820 0.075900 0.014391
v -0.090724 0.151396 0.020520
v -0.091961 0.115837 0.043577
v -0.061888 0.176136 -0.061386
v 0.056883 0.055546 -0.002720
v 0.026608 0.105630 -0.017023
v 0.039344 0.058236 -0.007896
v -0.033657 0.093838 -0.025829
v -0.038696 0.127109 0.017417
v -0.077062 0.180108 -0.052581
v -0.021161 0.187565 -0.014000
v -0.075656 0.036722 0.000523
v 0.038745 0.086876 -0.015218
v -0.050311 0.052067 0.016033
v -0.043083 0.033900 -0.025331
v -0.050560 0.058363 -0.009006
v -0.068419 0.152339 -0.051363
v -0.032524 0.052691 -0.010075
v -0.024511 0.087626 -0.042562
v -0.081046 0.068460 0.008902
v -0.050103 0.127564 -0.006227
v 0.021838 0.051747 -0.025867
v -0.066499 0.140983 -0.009101
v -0.019211 0.048318 -0.032185
v 0.011644 0.033828 -0.019171
v -0.032836 0.037328 -0.017976
v 0.004392 0.034164 0.008080
v 0.021277 0.034567 0.007649
v -0.038242 0.035340 -0.006992
v 0.052366 0.042876 0.016582
v -0.056256 0.033956 0.016627
v -0.041150 0.033540 -0.001451
v -0.044810 0.034277 0.008414
v -0.032531 0.038442 -0.000420
v 0.014724 0.030511 0.022455
v -0.028410 0.037371 0.016877
v -0.058211 0.077297 0.045104
v 0.009471 0.037744 0.033941
v -0.036082 0.037165 0.031610
v -0.018321 0.038958 0.040365
v -0.026208 0.034952 0.044169
vn -0.0926 0.9952 -0.0332
vn 0.8629 0.4177 -0.2845
vn -0.8216 0.3567 -0.4446
vn 0.2294 0.3291 0.9160
vn 0.8699 -0.1050 -0.4818
vn -0.0458 0.1243 0.9912
vn -0.0032 -0.4390 0.8985
vn 0.1100 0.6556 0.7470
vn 0.1621 -0.1473 0.9757
vn -0.2690 0.6001 0.7533
vn -0.4103 0.8838 0.2248
vn -0.1985 -0.2275 0.9533
vn -0.1112 0.4539 0.8841
vn -0.3535 0.7575 0.5488
vn 0.8433 0.3402 0.4161
vn 0.7164 0.2221 0.6614
vn 0.6770 -0.4841 0.5543
vn 0.5248 -0.2218 0.8218
vn 0.4458 0.2880 0.8475
vn 0.3955 0.4713 0.7883
vn 0.8011 0.0460 0.5968
vn 0.7906 -0.5502 -0.2688
vn -0.0557 -0.8730 0.4846
vn 0.8247 0.0012 0.5656
vn 0.6175 0.0769 0.7828
vn 0.5015 0.2055 0.8404
vn -0.0938 -0.9955 0.0131
vn 0.3497 -0.8186 -0.4556
vn 0.5096 -0.6294 0.5866
vn 0.9954 -0.0708 -0.0643
vn -0.0709 -0.9927 0.0975
vn 0.1037 0.3770 0.9204
vn -0.9215 -0.2548 -0.2931
vn -0.1666 -0.3566 -0.9193
vn 0.6160 -0.7475 0.2485
vn 0.6196 -0.7027 -0.3498
vn -0.1041 -0.9902 -0.0926
vn -0.9247 0.2957 -0.2396
vn 0.9571 -0.2850 -0.0530
vn 0.8099 0.4937 -0.3166
vn 0.9774 -0.0291 0.2096
vn 0.8355 -0.3704 0.4058
vn 0.8862 0.1871 -0.4240
vn -0.7788 0.1672 0.6045
vn -0.0932 0.9833 0.1561
vn 0.4027 0.8632 0.3046
vn -0.2220 0.9747 0.0247
vn -0.9975 0.0367 -0.0606
vn 0.0503 0.9987 -0.0039
vn 0.7803 0.6234 0.0507
vn 0.6891 0.6685 -0.2796
vn 0.5251 0.8364 0.1572
vn -0.4152 -0.2443 -0.8763
vn -0.4158 0.7896 0.4512
vn -0.7625 -0.2261 0.6062
vn -0.5002 -0.0975 0.8604
vn -0.3554 0.6600 0.6619
vn -0.6231 -0.2026 0.7554
vn -0.2539 0.7060 0.6611
vn -0.5921 -0.6813 0.4304
vn -0.8798 -0.4745 -0.0277
vn -0.1767 0.8663 0.4672
vn -0.6651 0.4224 0.6158
vn 0.1910 0.6630 -0.7238
vn -0.9366 -0.2995 -0.1817
vn -0.8522 -0.2379 -0.4661
vn -0.7298 -0.6678 -0.1463
vn -0.8896 -0.1845 -0.4178
vn -0.9995 0.0293 -0.0085
vn -0.4927 -0.8678 0.0636
vn -0.6036 0.2232 0.7654
vn -0.6565 0.3762 -0.6538
vn -0.1189 0.9079 -0.4020
vn -0.5160 -0.7111 -0.4776
vn -0.4587 -0.0090 -0.8885
vn -0.9368 -0.1333 -0.3236
vn -0.5946 0.7783 0.2016
vn -0.5514 0.6902 -0.4685
vn 0.3929 0.1672 -0.9043
vn -0.0111 -0.9902 0.1393
vn 0.3062 0.6392 -0.7055
vn 0.1523 -0.9862 0.0655
vn 0.1242 -0.9850 0.1196
vn 0.3126 0.6238 -0.7163
vn -0.1177 0.9901 0.0759
vn 0.1107 0.1660 -0.9799
vn 0.4238 0.3377 -0.8404
vn 0.0390 0.7332 -0.6789
vn -0.0734 0.5559 -0.8280
vn -0.4973 0.1151 -0.8599
vn -0.5695 0.3287 -0.7534
vn 0.3821 0.2781 -0.8813
vn 0.1353 -0.6140 -0.7776
vn 0.7350 -0.1535 -0.6605
vn -0.0750 0.3900 -0.9178
vn 0.1341 0.5781 -0.8049
vn -0.6680 -0.3460 -0.6589
vn 0.3962 0.0864 -0.9141
vn 0.1668 -0.2306 -0.9586
vn -0.0872 -0.3926 -0.9156
vn -0.2377 0.1565 -0.9587
vn 0.1021 -0.3987 -0.9114
vn 0.1690 -0.6372 -0.7519
vn -0.6113 0.4687 -0.6376
vn -0.5305 -0.2012 -0.8234
vn 0.0500 -0.6501 -0.7582
vn -0.2893 -0.8641 0.4119
vn 0.1133 -0.9855 0.1261
vn 0.2909 -0.9478 -0.1309
vn -0.4313 -0.8928 0.1299
vn 0.3193 -0.6400 0.6989
vn -0.0787 -0.9969 -0.0087
vn -0.2526 -0.6943 0.6739
vn 0.0855 -0.9959 0.0305
vn -0.6152 -0.5833 0.5304
vn -0.4196 -0.8813 -0.2174
vn -0.1132 -0.9930 -0.0342
vn -0.5857 -0.7793 0.2229
vn -0.4962 -0.7179 0.4882
vn 0.0243 -0.9995 0.0188
vn 0.0374 -0.9992 0.0131
vn 0.3004 -0.9535 0.0260
vn -0.8600 0.3741 -0.3469
vn 0.8925 -0.2043 0.4022
vn 0.2264 0.3223 0.9191
vn 0.1077 -0.9388 0.3271
vn 0.4321 -0.9005 0.0496
vn 0.0396 -0.9866 0.1580
s 0
f 9//1 30//1 11//1
f 41//2 27//2 29//2
f 7//3 30//3 9//3
f 10//4 22//4 20//4
f 35//5 41//5 29//5
f 65//6 21//6 17//6
f 5//7 24//7 10//7
f 21//8 37//8 17//8
f 8//9 21//9 65//9
f 21//10 2//10 37//10
f 3//11 8//11 42//11
f 5//12 10//12 20//12
f 22//13 2//13 21//13
f 4//14 39//14 23//14
f 39//15 26//15 1//15
f 14//16 37//16 11//16
f 14//17 17//17 37//17
f 28//18 10//18 24//18
f 27//19 22//19 10//19
f 27//20 2//20 22//20
f 29//21 27//21 28//21
f 53//22 50//22 56//22
f 53//23 54//23 43//23
f 58//24 29//24 28//24
f 28//25 27//25 10//25
f 26//26 39//26 4//26
f 55//27 64//27 54//27
f 33//28 58//28 56//28
f 15//29 26//29 4//29
f 45//30 23//30 51//30
f 55//31 68//31 64//31
f 8//32 3//32 69//32
f 48//33 13//33 18//33
f 46//34 44//34 36//34
f 24//35 63//35 28//35
f 50//36 35//36 56//36
f 67//37 69//37 3//37
f 3//38 42//38 59//38
f 23//39 45//39 32//39
f 41//40 34//40 27//40
f 58//41 33//41 29//41
f 11//42 15//42 4//42
f 49//43 15//43 37//43
f 13//44 17//44 19//44
f 16//45 37//45 2//45
f 32//46 38//46 23//46
f 9//47 11//47 23//47
f 19//48 30//48 7//48
f 23//49 11//49 4//49
f 15//50 11//50 37//50
f 34//51 16//51 27//51
f 16//52 2//52 27//52
f 15//53 23//53 1//53
f 9//54 23//54 38//54
f 21//55 5//55 20//55
f 21//56 8//56 5//56
f 30//57 14//57 11//57
f 65//58 17//58 13//58
f 6//59 5//59 8//59
f 42//60 8//60 65//60
f 69//61 6//61 8//61
f 21//62 20//62 22//62
f 14//63 30//63 31//63
f 16//64 34//64 25//64
f 45//65 9//65 38//65
f 47//66 52//66 46//66
f 45//67 51//67 9//67
f 47//68 46//68 36//68
f 31//69 30//69 19//69
f 64//70 62//70 54//70
f 59//71 42//71 40//71
f 19//72 12//72 18//72
f 36//73 34//73 47//73
f 44//74 48//74 18//74
f 7//75 9//75 51//75
f 13//76 19//76 18//76
f 42//77 44//77 40//77
f 46//78 52//78 43//78
f 34//79 41//79 47//79
f 66//80 68//80 55//80
f 29//81 33//81 35//81
f 64//82 67//82 61//82
f 64//83 61//83 60//83
f 15//84 51//84 23//84
f 37//85 16//85 49//85
f 34//86 36//86 25//86
f 15//87 49//87 51//87
f 49//88 16//88 25//88
f 49//89 25//89 12//89
f 7//90 51//90 12//90
f 43//91 40//91 44//91
f 12//92 51//92 49//92
f 56//93 35//93 33//93
f 35//94 50//94 41//94
f 36//95 12//95 25//95
f 43//96 44//96 46//96
f 19//97 7//97 12//97
f 50//98 47//98 41//98
f 50//99 52//99 47//99
f 44//100 18//100 36//100
f 18//101 12//101 36//101
f 53//102 43//102 50//102
f 50//103 43//103 52//103
f 1//104 23//104 39//104
f 38//105 32//105 45//105
f 15//106 1//106 26//106
f 63//107 24//107 66//107
f 24//108 69//108 66//108
f 58//109 63//109 56//109
f 17//110 31//110 19//110
f 58//111 28//111 63//111
f 53//112 55//112 54//112
f 17//113 14//113 31//113
f 68//114 67//114 64//114
f 65//115 13//115 48//115
f 44//116 42//116 48//116
f 43//117 59//117 40//117
f 63//118 66//118 55//118
f 42//119 65//119 48//119
f 53//120 56//120 55//120
f 43//121 61//121 59//121
f 61//122 43//122 54//122
f 60//123 61//123 54//123
f 60//124 60//124 54//124
f 24//125 5//125 6//125
f 24//126 6//126 69//126
f 54//127 62//127 60//127
f 3//128 59//128 67//128
